<svg width="24" height="24" viewBox="0 0 24 24" fill="none" xmlns="http://www.w3.org/2000/svg">
    <path
        d="M11.2929 21.7071C11.6834 22.0976 12.3166 22.0976 12.7071 21.7071L19.0711 15.3431C19.4616 14.9526 19.4616 14.3195 19.0711 13.9289C18.6805 13.5384 18.0474 13.5384 17.6569 13.9289L12 19.5858L6.34315 13.9289C5.95262 13.5384 5.31946 13.5384 4.92893 13.9289C4.53841 14.3195 4.53841 14.9526 4.92893 15.3431L11.2929 21.7071ZM11 14L11 21H13L13 14H11Z"
        fill="black" />
    <path
        d="M12.7071 2.29289C12.3166 1.90237 11.6834 1.90237 11.2929 2.29289L4.92893 8.65686C4.53841 9.04738 4.53841 9.68055 4.92893 10.0711C5.31945 10.4616 5.95262 10.4616 6.34314 10.0711L12 4.41421L17.6569 10.0711C18.0474 10.4616 18.6805 10.4616 19.0711 10.0711C19.4616 9.68055 19.4616 9.04738 19.0711 8.65686L12.7071 2.29289ZM13 10L13 3H11L11 10H13Z"
        fill="black" />
</svg>