<svg width="26" height="26" viewBox="0 0 26 26" fill="none" xmlns="http://www.w3.org/2000/svg">
    <path
        d="M25.5307 13.5303C25.8235 13.2374 25.8235 12.7626 25.5307 12.4697L20.7577 7.6967C20.4648 7.40381 19.9899 7.40381 19.697 7.6967C19.4041 7.98959 19.4041 8.46447 19.697 8.75736L23.9397 13L19.697 17.2426C19.4041 17.5355 19.4041 18.0104 19.697 18.3033C19.9899 18.5962 20.4648 18.5962 20.7577 18.3033L25.5307 13.5303ZM15.667 13.75H25.0003V12.25H15.667V13.75Z"
        fill="black" />
    <path
        d="M12.4697 25.5304C12.7626 25.8232 13.2374 25.8232 13.5303 25.5304L18.3033 20.7574C18.5962 20.4645 18.5962 19.9896 18.3033 19.6967C18.0104 19.4038 17.5355 19.4038 17.2426 19.6967L13 23.9394L8.75736 19.6967C8.46447 19.4038 7.98959 19.4038 7.6967 19.6967C7.40381 19.9896 7.40381 20.4645 7.6967 20.7574L12.4697 25.5304ZM12.25 15.6667L12.25 25H13.75L13.75 15.6667H12.25Z"
        fill="black" />
    <path
        d="M0.469343 12.4697C0.176449 12.7626 0.176449 13.2374 0.469343 13.5303L5.24231 18.3033C5.53521 18.5962 6.01008 18.5962 6.30297 18.3033C6.59587 18.0104 6.59587 17.5355 6.30297 17.2426L2.06033 13L6.30297 8.75736C6.59587 8.46447 6.59587 7.98959 6.30297 7.6967C6.01008 7.40381 5.53521 7.40381 5.24231 7.6967L0.469343 12.4697ZM10.333 12.25H0.999673V13.75H10.333V12.25Z"
        fill="black" />
    <path
        d="M13.5303 0.469649C13.2374 0.176756 12.7626 0.176756 12.4697 0.469649L7.6967 5.24262C7.4038 5.53552 7.4038 6.01039 7.6967 6.30328C7.98959 6.59618 8.46446 6.59618 8.75736 6.30328L13 2.06064L17.2426 6.30328C17.5355 6.59618 18.0104 6.59618 18.3033 6.30328C18.5962 6.01039 18.5962 5.53552 18.3033 5.24262L13.5303 0.469649ZM13.75 10.3333L13.75 0.999979H12.25L12.25 10.3333H13.75Z"
        fill="black" />
</svg>