<svg width="24" height="24" viewBox="0 0 24 24" fill="none" xmlns="http://www.w3.org/2000/svg">
    <path
        d="M21.7071 12.7071C22.0976 12.3166 22.0976 11.6834 21.7071 11.2929L15.3431 4.92893C14.9526 4.53841 14.3195 4.53841 13.9289 4.92893C13.5384 5.31946 13.5384 5.95262 13.9289 6.34315L19.5858 12L13.9289 17.6569C13.5384 18.0474 13.5384 18.6805 13.9289 19.0711C14.3195 19.4616 14.9526 19.4616 15.3431 19.0711L21.7071 12.7071ZM14 13H21V11H14V13Z"
        fill="black" />
    <path
        d="M2.29289 11.2929C1.90237 11.6834 1.90237 12.3166 2.29289 12.7071L8.65685 19.0711C9.04738 19.4616 9.68054 19.4616 10.0711 19.0711C10.4616 18.6805 10.4616 18.0474 10.0711 17.6569L4.41421 12L10.0711 6.34315C10.4616 5.95262 10.4616 5.31946 10.0711 4.92893C9.68054 4.53841 9.04738 4.53841 8.65685 4.92893L2.29289 11.2929ZM10 11H3V13H10V11Z"
        fill="black" />
</svg>