<svg width="1024" height="1024" viewBox="0 0 1024 1024" fill="none" xmlns="http://www.w3.org/2000/svg">
<rect x="100" y="100" width="824" height="824" rx="184" fill="white"/>
<path d="M624.875 219.169H399.125C384.157 219.169 369.802 225.201 359.218 235.938C348.634 246.675 342.688 261.238 342.688 276.423V696.282C342.688 711.466 348.634 726.029 359.218 736.766C369.802 747.503 384.157 753.535 399.125 753.535H624.875C639.843 753.535 654.198 747.503 664.782 736.766C675.366 726.029 681.312 711.466 681.312 696.282V276.423C681.312 261.238 675.366 246.675 664.782 235.938C654.198 225.201 639.843 219.169 624.875 219.169ZM643.688 696.282C643.688 701.343 641.705 706.197 638.177 709.776C634.649 713.356 629.864 715.366 624.875 715.366H399.125C394.136 715.366 389.351 713.356 385.823 709.776C382.295 706.197 380.312 701.343 380.312 696.282V276.423C380.312 271.361 382.295 266.507 385.823 262.928C389.351 259.349 394.136 257.338 399.125 257.338H624.875C629.864 257.338 634.649 259.349 638.177 262.928C641.705 266.507 643.688 271.361 643.688 276.423V696.282ZM540.219 324.134C540.219 329.796 538.564 335.33 535.463 340.038C532.362 344.746 527.955 348.415 522.799 350.581C517.643 352.748 511.969 353.315 506.495 352.211C501.021 351.106 495.993 348.379 492.046 344.376C488.1 340.372 485.412 335.272 484.323 329.719C483.235 324.166 483.793 318.41 485.929 313.179C488.065 307.948 491.682 303.477 496.323 300.332C500.963 297.186 506.419 295.507 512 295.507C519.484 295.507 526.662 298.523 531.954 303.892C537.246 309.26 540.219 316.542 540.219 324.134Z" fill="#1565C0"/>
<g clip-path="url(#clip0_127_35360)">
<path d="M514.508 631.135L491.785 671.063C490.594 673.148 488.638 674.669 486.343 675.293C484.049 675.917 481.604 675.592 479.546 674.389L427.892 644.08L405.692 683.089L361.746 657.35L383.947 618.341L306.87 573.086C322.362 560.218 341.352 552.446 361.31 550.809C381.267 549.171 401.243 553.745 418.572 563.92L511.22 618.686C512.243 619.283 513.14 620.079 513.859 621.028C514.578 621.978 515.106 623.062 515.411 624.218C515.716 625.375 515.794 626.581 515.639 627.768C515.484 628.955 515.1 630.099 514.508 631.135Z" fill="#BEDCFF"/>
<path d="M515.727 610.784L422.95 556.018C398.219 541.566 368.845 537.658 341.276 545.152C313.707 552.646 290.195 570.929 275.9 595.99L275.828 596.115L265.044 615.804C263.944 617.908 263.701 620.366 264.367 622.65C265.034 624.934 266.556 626.862 268.608 628.02C270.66 629.178 273.077 629.474 275.341 628.844C277.606 628.214 279.536 626.708 280.719 624.65L291.474 605.028C295.854 597.333 301.323 590.332 307.705 584.247L371.578 621.704L295.462 755.447C294.283 757.517 293.519 759.802 293.211 762.172C292.903 764.542 293.059 766.95 293.669 769.259C294.278 771.568 295.331 773.732 296.765 775.629C298.2 777.525 299.989 779.116 302.029 780.311L330.443 796.953C332.483 798.148 334.736 798.924 337.072 799.237C339.408 799.549 341.782 799.391 344.058 798.772C346.335 798.154 348.468 797.086 350.337 795.631C352.207 794.175 353.775 792.361 354.953 790.291L431.069 656.548L450.762 668.082L475.009 682.264C477.049 683.46 479.302 684.236 481.638 684.548C483.974 684.86 486.348 684.702 488.624 684.084C490.9 683.465 493.034 682.398 494.903 680.942C496.773 679.487 498.341 677.672 499.519 675.602L522.267 635.632C524.644 631.457 525.29 626.494 524.064 621.835C522.838 617.177 519.839 613.202 515.727 610.784ZM339.407 781.185L311.005 764.541L364.92 669.806L393.323 686.451L339.407 781.185ZM420.005 639.535L402.295 670.669L373.888 654.05L391.608 622.912C392.198 621.877 392.581 620.734 392.736 619.548C392.89 618.363 392.812 617.158 392.507 616.003C392.202 614.848 391.675 613.765 390.957 612.816C390.24 611.868 389.344 611.072 388.323 610.475L323.314 572.408C337.01 564.149 352.627 559.74 368.56 559.633C384.492 559.527 400.165 563.727 413.967 571.802L474.779 607.689L451.959 647.737L432.266 636.203C431.245 635.604 430.118 635.215 428.95 635.059C427.781 634.903 426.593 634.981 425.455 635.291C424.316 635.6 423.249 636.135 422.314 636.863C421.378 637.591 420.594 638.499 420.005 639.535ZM484.006 666.488L467.526 656.836L490.23 616.831L506.709 626.483L484.006 666.488Z" fill="#3B3B4B"/>
<rect width="35.5775" height="112.267" transform="matrix(0.859787 0.503576 -0.496398 0.872219 364.888 666.867)" fill="#3B3B4B"/>
</g>
<defs>
<clipPath id="clip0_127_35360">
<rect width="287.331" height="290.926" fill="white" transform="matrix(0.964985 -0.262306 0.255372 0.966843 211 561.721)"/>
</clipPath>
</defs>
</svg>
