<svg width="602" height="662" viewBox="0 0 602 662" fill="none" xmlns="http://www.w3.org/2000/svg">
<path d="M413.875 38.169H188.125C173.157 38.169 158.802 44.2011 148.218 54.9382C137.634 65.6753 131.688 80.2379 131.688 95.4225V515.282C131.688 530.466 137.634 545.029 148.218 555.766C158.802 566.503 173.157 572.535 188.125 572.535H413.875C428.843 572.535 443.198 566.503 453.782 555.766C464.366 545.029 470.312 530.466 470.312 515.282V95.4225C470.312 80.2379 464.366 65.6753 453.782 54.9382C443.198 44.2011 428.843 38.169 413.875 38.169ZM432.688 515.282C432.688 520.343 430.705 525.197 427.177 528.776C423.649 532.356 418.864 534.366 413.875 534.366H188.125C183.136 534.366 178.351 532.356 174.823 528.776C171.295 525.197 169.312 520.343 169.312 515.282V95.4225C169.312 90.361 171.295 85.5068 174.823 81.9277C178.351 78.3487 183.136 76.338 188.125 76.338H413.875C418.864 76.338 423.649 78.3487 427.177 81.9277C430.705 85.5068 432.688 90.361 432.688 95.4225V515.282ZM329.219 143.134C329.219 148.796 327.564 154.33 324.463 159.038C321.362 163.746 316.955 167.415 311.799 169.581C306.643 171.748 300.969 172.315 295.495 171.211C290.021 170.106 284.993 167.38 281.046 163.376C277.1 159.372 274.412 154.272 273.323 148.719C272.235 143.166 272.793 137.41 274.929 132.179C277.065 126.948 280.682 122.477 285.323 119.332C289.963 116.186 295.419 114.507 301 114.507C308.484 114.507 315.662 117.523 320.954 122.892C326.246 128.26 329.219 135.542 329.219 143.134Z" fill="#1565C0"/>
<g clip-path="url(#clip0_127_35370)">
<path d="M303.508 450.135L280.785 490.063C279.594 492.148 277.638 493.669 275.343 494.293C273.049 494.917 270.604 494.592 268.546 493.389L216.892 463.08L194.692 502.089L150.746 476.35L172.947 437.341L95.8697 392.086C111.362 379.218 130.352 371.446 150.31 369.809C170.267 368.171 190.243 372.745 207.572 382.92L300.22 437.686C301.243 438.283 302.14 439.079 302.859 440.028C303.578 440.978 304.106 442.062 304.411 443.218C304.716 444.375 304.794 445.581 304.639 446.768C304.484 447.955 304.1 449.099 303.508 450.135Z" fill="#BEDCFF"/>
<path d="M304.727 429.784L211.95 375.018C187.219 360.566 157.845 356.658 130.276 364.152C102.707 371.646 79.1952 389.929 64.8997 414.99L64.8284 415.115L54.044 434.804C52.9439 436.908 52.701 439.366 53.3673 441.65C54.0336 443.934 55.5561 445.862 57.6078 447.02C59.6596 448.178 62.0772 448.474 64.3415 447.844C66.6058 447.214 68.5363 445.708 69.7187 443.65L80.4743 424.028C84.8544 416.333 90.3227 409.332 96.7049 403.247L160.578 440.704L84.4619 574.447C83.2835 576.517 82.5186 578.802 82.2109 581.172C81.9032 583.542 82.0587 585.95 82.6686 588.259C83.2784 590.568 84.3307 592.732 85.7652 594.629C87.1998 596.525 88.9886 598.116 91.0294 599.311L119.443 615.953C121.483 617.148 123.736 617.924 126.072 618.237C128.408 618.549 130.782 618.391 133.058 617.772C135.334 617.154 137.468 616.086 139.337 614.631C141.207 613.175 142.775 611.361 143.953 609.291L220.069 475.548L239.762 487.082L264.009 501.264C266.049 502.46 268.302 503.236 270.638 503.548C272.974 503.86 275.348 503.702 277.624 503.084C279.9 502.465 282.034 501.398 283.903 499.942C285.773 498.487 287.341 496.672 288.519 494.602L311.267 454.632C313.644 450.457 314.29 445.494 313.064 440.835C311.838 436.177 308.839 432.202 304.727 429.784ZM128.407 600.185L100.005 583.541L153.92 488.806L182.323 505.451L128.407 600.185ZM209.005 458.535L191.295 489.669L162.888 473.05L180.608 441.912C181.198 440.877 181.581 439.734 181.736 438.548C181.89 437.363 181.812 436.158 181.507 435.003C181.202 433.848 180.675 432.765 179.957 431.816C179.24 430.868 178.344 430.072 177.323 429.475L112.314 391.408C126.01 383.149 141.627 378.74 157.56 378.633C173.492 378.527 189.165 382.727 202.967 390.802L263.779 426.689L240.959 466.737L221.266 455.203C220.245 454.604 219.118 454.215 217.95 454.059C216.781 453.903 215.593 453.981 214.455 454.291C213.316 454.6 212.249 455.135 211.314 455.863C210.378 456.591 209.594 457.499 209.005 458.535ZM273.006 485.488L256.526 475.836L279.23 435.831L295.709 445.483L273.006 485.488Z" fill="#3B3B4B"/>
<rect width="35.5775" height="112.267" transform="matrix(0.859787 0.503576 -0.496398 0.872219 153.888 485.867)" fill="#3B3B4B"/>
</g>
<defs>
<clipPath id="clip0_127_35370">
<rect width="287.331" height="290.926" fill="white" transform="matrix(0.964985 -0.262306 0.255372 0.966843 0 380.721)"/>
</clipPath>
</defs>
</svg>
