<svg width="24" height="26" viewBox="0 0 24 26" fill="none" xmlns="http://www.w3.org/2000/svg">
    <path
        d="M19.325 10.5212C19.325 10.5212 18.782 17.3416 18.467 20.2146C18.317 21.5868 17.48 22.3909 16.109 22.4162C13.5 22.4638 10.888 22.4668 8.28003 22.4111C6.96103 22.3838 6.13803 21.5696 5.99103 20.2217C5.67403 17.3234 5.13403 10.5212 5.13403 10.5212"
        stroke="black" stroke-width="1.5" stroke-linecap="round" stroke-linejoin="round" />
    <path d="M20.7082 7.25182H3.75024" stroke="black" stroke-width="1.5" stroke-linecap="round"
        stroke-linejoin="round" />
    <path
        d="M17.4406 7.25181C16.6556 7.25181 15.9796 6.68977 15.8256 5.91102L15.5826 4.6796C15.4326 4.11149 14.9246 3.71857 14.3456 3.71857H10.1126C9.53358 3.71857 9.02558 4.11149 8.87558 4.6796L8.63258 5.91102C8.47858 6.68977 7.80258 7.25181 7.01758 7.25181"
        stroke="black" stroke-width="1.5" stroke-linecap="round" stroke-linejoin="round" />
</svg>