<svg width="24" height="24" viewBox="0 0 24 24" fill="none" xmlns="http://www.w3.org/2000/svg">
    <path fill-rule="evenodd" clip-rule="evenodd"
        d="M14.0227 4.72272L14.1127 4.77472C14.8909 5.22393 15.5397 5.59852 16.0148 5.96516C16.5163 6.35216 16.9143 6.79635 17.0811 7.41854C17.2478 8.04072 17.1252 8.62442 16.8844 9.21031C16.6562 9.76538 16.2816 10.4142 15.8323 11.1923L11.9568 17.905C11.6599 18.4203 11.4251 18.8278 11.0677 19.1348C10.7104 19.4419 10.2722 19.6126 9.71809 19.8286L9.56835 19.887C8.54013 20.2888 7.69257 20.6199 6.99851 20.7821C6.27263 20.9517 5.57176 20.9728 4.91849 20.5956C4.26522 20.2185 3.93306 19.6009 3.71699 18.8875C3.51039 18.2054 3.37341 17.3058 3.20723 16.2144L3.18297 16.0555C3.09294 15.4677 3.02175 15.0028 3.10899 14.5398C3.11989 14.482 3.13311 14.4249 3.14848 14.3685C3.25606 13.9734 3.46891 13.6054 3.72947 13.155L7.60509 6.44231C8.0543 5.66419 8.42889 5.01533 8.79553 4.54022C9.18253 4.03873 9.62672 3.64071 10.2489 3.47399C10.8711 3.30728 11.4548 3.42988 12.0407 3.67068C12.5958 3.89882 13.2446 4.27345 14.0227 4.72272ZM8.50313 7.88686L14.1323 11.1369L10.7089 17.0664C10.3359 17.7124 10.2293 17.8776 10.0902 17.9971C9.95108 18.1166 9.77174 18.1972 9.07696 18.4686C7.98049 18.897 7.23373 19.1868 6.65725 19.3214C6.10038 19.4515 5.84769 19.4001 5.66849 19.2966C5.48929 19.1931 5.31836 19 5.1526 18.4527C4.981 17.8861 4.85857 17.0945 4.68132 15.9308C4.56901 15.1934 4.5491 14.9978 4.58305 14.8176C4.61701 14.6373 4.70673 14.4624 5.07969 13.8164L8.50313 7.88686ZM15.497 8.64009C15.3645 8.96253 15.1618 9.34165 14.8807 9.83691L9.2547 6.58873C9.54308 6.0977 9.77007 5.73261 9.98305 5.45662C10.2675 5.08801 10.4591 4.97058 10.6371 4.92288C10.8152 4.87518 11.0398 4.88107 11.4705 5.05807C11.9213 5.24335 12.4829 5.56575 13.3177 6.04776C14.1526 6.52976 14.7126 6.85492 15.0984 7.15268C15.467 7.43714 15.5845 7.62875 15.6322 7.80677C15.6799 7.98478 15.674 8.20943 15.497 8.64009Z"
        fill="#2D264B" />
    <path
        d="M12.6597 20.251C12.6597 19.8368 12.9955 19.501 13.4097 19.501H19.4097C19.8239 19.501 20.1597 19.8368 20.1597 20.251C20.1597 20.6652 19.8239 21.001 19.4097 21.001H13.4097C12.9955 21.001 12.6597 20.6652 12.6597 20.251Z"
        fill="#2D264B" />
</svg>