<svg width="24" height="24" viewBox="0 0 24 24" fill="none" xmlns="http://www.w3.org/2000/svg">
<path d="M6.29367 4.96556C8.96048 3.028 10.2939 2.05923 11.8167 2.00336C11.9389 1.99888 12.0611 1.99888 12.1833 2.00336C13.7061 2.05923 15.0395 3.028 17.7063 4.96556C20.3732 6.90311 21.7066 7.87189 22.2303 9.30291C22.2723 9.41771 22.3101 9.534 22.3436 9.65157C22.761 11.1171 22.2517 12.6846 21.2331 15.8197L19.512 21.1164C19.2386 21.958 18.4543 22.5279 17.5694 22.5279C16.4412 22.5279 15.5267 21.6133 15.5267 20.4852V17.7363C15.5267 16.6778 14.6686 15.8197 13.6101 15.8197H10.3899C9.3314 15.8197 8.47329 16.6778 8.47329 17.7363V20.4852C8.47329 21.6133 7.55877 22.5279 6.43065 22.5279C5.54572 22.5279 4.76144 21.958 4.48798 21.1164L2.76696 15.8197C1.74832 12.6846 1.23901 11.1171 1.65645 9.65157C1.68994 9.534 1.72773 9.41771 1.76974 9.30291C2.29344 7.87189 3.62685 6.90311 6.29367 4.96556Z" fill="#2D264B"/>
</svg>
