<svg width="24" height="24" viewBox="0 0 24 24" fill="none" xmlns="http://www.w3.org/2000/svg">
    <path
        d="M13.4099 19.501C12.9957 19.501 12.6599 19.8368 12.6599 20.251C12.6599 20.6652 12.9957 21.001 13.4099 21.001H19.4099C19.8241 21.001 20.1599 20.6652 20.1599 20.251C20.1599 19.8368 19.8241 19.501 19.4099 19.501H13.4099Z"
        fill="#2D264B" />
    <path
        d="M14.2039 4.5755L14.294 4.6275C15.0721 5.07671 15.721 5.4513 16.1961 5.81795C16.6976 6.20494 17.0956 6.64914 17.2623 7.27132C17.429 7.8935 17.3064 8.4772 17.0656 9.06309C16.8985 9.46976 16.6527 9.92674 16.3566 10.448L15.7213 10.0704L15.7131 10.0656L8.78779 6.06728L8.14014 5.68557C8.44023 5.17448 8.71061 4.73795 8.97681 4.393C9.3638 3.89152 9.808 3.49349 10.4302 3.32678C11.0524 3.16006 11.6361 3.28267 12.222 3.52347C12.777 3.7516 13.4259 4.12624 14.2039 4.5755Z"
        fill="#2D264B" />
    <path
        d="M7.38872 6.98384L3.91075 13.0077C3.61296 13.5225 3.3775 13.9296 3.29026 14.3926C3.20303 14.8556 3.27421 15.3204 3.36424 15.9083L3.3885 16.0672C3.55469 17.1586 3.69167 18.0581 3.89827 18.7403C4.11434 19.4537 4.44649 20.0712 5.09977 20.4484C5.75304 20.8256 6.4539 20.8045 7.17979 20.6349C7.87385 20.4727 8.72139 20.1416 9.74962 19.7398L9.89936 19.6814C10.4535 19.4654 10.8916 19.2946 11.249 18.9876C11.6064 18.6805 11.8411 18.2731 12.1381 17.7578L15.6078 11.7479L14.959 11.3623L8.02905 7.36127L7.38872 6.98384Z"
        fill="#2D264B" />
</svg>