<svg width="24" height="24" viewBox="0 0 24 24" fill="none" xmlns="http://www.w3.org/2000/svg">
    <path
        d="M9.75 12C9.75 10.7574 10.7574 9.75002 12 9.75002C13.2426 9.75002 14.25 10.7574 14.25 12C14.25 13.2427 13.2426 14.25 12 14.25C10.7574 14.25 9.75 13.2427 9.75 12Z"
        fill="#2D264B" />
    <path fill-rule="evenodd" clip-rule="evenodd"
        d="M8.58523 3.2323C9.56564 -0.203083 14.4342 -0.203084 15.4147 3.2323C15.7184 4.2967 16.812 4.92806 17.8857 4.65893C21.351 3.7903 23.7853 8.00664 21.3004 10.5734C20.5305 11.3687 20.5305 12.6314 21.3004 13.4266C23.7853 15.9934 21.351 20.2097 17.8857 19.3411C16.812 19.072 15.7184 19.7033 15.4147 20.7677C14.4342 24.2031 9.56564 24.2031 8.58523 20.7677C8.28146 19.7033 7.18792 19.072 6.11423 19.3411C2.6489 20.2097 0.214599 15.9934 2.69952 13.4266C3.46944 12.6314 3.46944 11.3687 2.69952 10.5734C0.214599 8.00664 2.6489 3.7903 6.11423 4.65893C7.18792 4.92806 8.28146 4.2967 8.58523 3.2323ZM12 8.25002C9.92893 8.25002 8.25 9.92895 8.25 12C8.25 14.0711 9.92893 15.75 12 15.75C14.0711 15.75 15.75 14.0711 15.75 12C15.75 9.92895 14.0711 8.25002 12 8.25002Z"
        fill="#2D264B" />
</svg>