<svg width="24" height="24" viewBox="0 0 24 24" fill="none" xmlns="http://www.w3.org/2000/svg">
    <rect x="2.75" y="4.75" width="18.5" height="13.7" rx="2.25" stroke="black" stroke-width="1.5" />
    <path
        d="M5.98793 14V8.18182H8.2152C8.63565 8.18182 8.98509 8.24811 9.26349 8.38068C9.5438 8.51136 9.75308 8.69034 9.89134 8.91761C10.0315 9.14489 10.1016 9.40246 10.1016 9.69034C10.1016 9.92708 10.0561 10.1297 9.9652 10.2983C9.87429 10.465 9.75213 10.6004 9.59872 10.7045C9.44531 10.8087 9.27391 10.8835 9.08452 10.929V10.9858C9.29096 10.9972 9.48887 11.0606 9.67827 11.1761C9.86955 11.2898 10.0258 11.4508 10.147 11.6591C10.2682 11.8674 10.3288 12.1193 10.3288 12.4148C10.3288 12.7159 10.2559 12.9867 10.1101 13.2273C9.96425 13.4659 9.74456 13.6544 9.45099 13.7926C9.15743 13.9309 8.78812 14 8.34304 14H5.98793ZM7.0419 13.1193H8.17543C8.558 13.1193 8.83357 13.0464 9.00213 12.9006C9.17259 12.7528 9.25781 12.5634 9.25781 12.3324C9.25781 12.16 9.2152 12.0047 9.12997 11.8665C9.04474 11.7263 8.92353 11.6165 8.76634 11.5369C8.60914 11.4555 8.42164 11.4148 8.20384 11.4148H7.0419V13.1193ZM7.0419 10.6562H8.08452C8.26634 10.6562 8.43016 10.6231 8.57599 10.5568C8.72183 10.4886 8.83641 10.393 8.91974 10.2699C9.00497 10.1449 9.04759 9.99716 9.04759 9.8267C9.04759 9.60133 8.96804 9.41572 8.80895 9.26989C8.65175 9.12405 8.41785 9.05114 8.10724 9.05114H7.0419V10.6562ZM13.3793 9.63636V10.4318H10.8707V9.63636H13.3793ZM11.4901 8.59091H12.5185V12.6875C12.5185 12.8258 12.5393 12.9318 12.581 13.0057C12.6245 13.0777 12.6813 13.1269 12.7514 13.1534C12.8215 13.1799 12.8991 13.1932 12.9844 13.1932C13.0488 13.1932 13.1075 13.1884 13.1605 13.179C13.2154 13.1695 13.2571 13.161 13.2855 13.1534L13.4588 13.9574C13.4039 13.9763 13.3253 13.9972 13.223 14.0199C13.1226 14.0426 12.9995 14.0559 12.8537 14.0597C12.5961 14.0672 12.3641 14.0284 12.1577 13.9432C11.9512 13.8561 11.7874 13.7216 11.6662 13.5398C11.5469 13.358 11.4882 13.1307 11.4901 12.858V8.59091ZM15.2678 11.4432V14H14.2393V9.63636H15.2223V10.3778H15.2734C15.3738 10.1335 15.5339 9.93939 15.7536 9.79545C15.9751 9.65152 16.2488 9.57955 16.5746 9.57955C16.8757 9.57955 17.138 9.64394 17.3615 9.77273C17.5869 9.90152 17.7611 10.0881 17.8842 10.3324C18.0092 10.5767 18.0708 10.8731 18.0689 11.2216V14H17.0405V11.3807C17.0405 11.089 16.9647 10.8608 16.8132 10.696C16.6636 10.5312 16.4562 10.4489 16.1911 10.4489C16.0111 10.4489 15.8511 10.4886 15.7109 10.5682C15.5727 10.6458 15.4638 10.7585 15.3842 10.9062C15.3066 11.054 15.2678 11.233 15.2678 11.4432Z"
        fill="black" />
</svg>