<svg width="26" height="26" viewBox="0 0 26 26" fill="none" xmlns="http://www.w3.org/2000/svg">
    <path
        d="M15.1316 12.5153C14.8413 12.8107 14.8454 13.2856 15.1408 13.5759L19.9553 18.307C20.2507 18.5974 20.7256 18.5932 21.0159 18.2978C21.3062 18.0023 21.3021 17.5275 21.0067 17.2372L16.7272 13.0317L20.9326 8.75219C21.2229 8.45675 21.2188 7.9819 20.9234 7.69157C20.6279 7.40124 20.1531 7.40539 19.8627 7.70083L15.1316 12.5153ZM24.993 12.2095L15.66 12.291L15.6731 13.7909L25.0061 13.7095L24.993 12.2095Z"
        fill="black" />
    <path
        d="M13.4838 15.1319C13.1883 14.8416 12.7135 14.8457 12.4232 15.1412L7.69203 19.9556C7.4017 20.2511 7.40584 20.7259 7.70128 21.0162C7.99672 21.3066 8.47158 21.3024 8.7619 21.007L12.9674 16.7275L17.2469 20.9329C17.5423 21.2233 18.0172 21.2191 18.3075 20.9237C18.5978 20.6282 18.5937 20.1534 18.2982 19.8631L13.4838 15.1319ZM13.7895 24.9933L13.7081 15.6603L12.2081 15.6734L12.2896 25.0064L13.7895 24.9933Z"
        fill="black" />
    <path
        d="M10.8679 13.4849C11.1582 13.1895 11.1541 12.7147 10.8587 12.4243L6.04422 7.69319C5.74878 7.40286 5.27393 7.407 4.9836 7.70244C4.69328 7.99788 4.69742 8.47274 4.99286 8.76306L9.27236 12.9685L5.0669 17.248C4.77658 17.5435 4.78072 18.0183 5.07616 18.3086C5.3716 18.599 5.84645 18.5948 6.13678 18.2994L10.8679 13.4849ZM1.00654 13.7907L10.3395 13.7092L10.3264 12.2093L0.993455 12.2907L1.00654 13.7907Z"
        fill="black" />
    <path
        d="M12.5167 10.868C12.8121 11.1583 13.287 11.1542 13.5773 10.8587L18.3085 6.04428C18.5988 5.74884 18.5946 5.27399 18.2992 4.98366C18.0038 4.69333 17.5289 4.69748 17.2386 4.99292L13.0331 9.27242L8.75362 5.06696C8.45818 4.77664 7.98333 4.78078 7.693 5.07622C7.40268 5.37166 7.40682 5.84651 7.70226 6.13684L12.5167 10.868ZM12.211 1.00661L12.2924 10.3396L13.7924 10.3265L13.7109 0.993516L12.211 1.00661Z"
        fill="black" />
    <circle cx="13" cy="13" r="1" fill="black" />
</svg>