<svg width="25" height="25" viewBox="0 0 25 25" fill="none" xmlns="http://www.w3.org/2000/svg">
    <path
        d="M17.4661 11.4733C17.1752 11.7681 17.1784 12.243 17.4733 12.5339L22.2783 17.2745C22.5732 17.5655 23.0481 17.5622 23.339 17.2674C23.6299 16.9725 23.6267 16.4977 23.3318 16.2067L19.0606 11.9928L23.2745 7.72166C23.5655 7.42679 23.5622 6.95193 23.2674 6.66102C22.9725 6.37011 22.4977 6.37332 22.2067 6.66818L17.4661 11.4733ZM23.9944 11.2095L17.9949 11.25L18.0051 12.75L24.0046 12.7095L23.9944 11.2095Z"
        fill="black" />
    <path
        d="M12.5268 17.4662C12.232 17.1752 11.7571 17.1784 11.4662 17.4732L6.72478 22.2775C6.43382 22.5723 6.43695 23.0472 6.73177 23.3381C7.02659 23.6291 7.50145 23.626 7.79241 23.3312L12.007 19.0606L16.2775 23.2752C16.5723 23.5662 17.0472 23.563 17.3381 23.2682C17.6291 22.9734 17.626 22.4985 17.3312 22.2076L12.5268 17.4662ZM12.7895 23.9949L12.75 17.9951L11.25 18.0049L11.2896 24.0048L12.7895 23.9949Z"
        fill="black" />
    <path
        d="M6.53047 12.5507C6.82336 12.2578 6.82336 11.7829 6.53047 11.49L1.7575 6.71705C1.4646 6.42416 0.989729 6.42416 0.696835 6.71705C0.403942 7.00995 0.403942 7.48482 0.696835 7.77771L4.93948 12.0204L0.696835 16.263C0.403942 16.5559 0.403942 17.0308 0.696835 17.3237C0.989729 17.6166 1.4646 17.6166 1.7575 17.3237L6.53047 12.5507ZM0 12.7704H6.00014V11.2704H0L0 12.7704Z"
        fill="black" />
    <path
        d="M11.4697 6.5304C11.7626 6.82329 12.2374 6.82329 12.5303 6.5304L17.3033 1.75742C17.5962 1.46453 17.5962 0.989654 17.3033 0.696761C17.0104 0.403867 16.5355 0.403867 16.2426 0.696761L12 4.9394L7.75736 0.696761C7.46446 0.403867 6.98959 0.403867 6.69669 0.696761C6.4038 0.989654 6.4038 1.46453 6.69669 1.75742L11.4697 6.5304ZM11.25 0V6.00007H12.75V0L11.25 0Z"
        fill="black" />
</svg>